<?xml version="1.0" encoding="iso-8859-1"?>
<!-- Generator: Adobe Illustrator 16.0.0, SVG Export Plug-In . SVG Version: 6.00 Build 0)  -->
<!DOCTYPE svg PUBLIC "-//W3C//DTD SVG 1.1//EN" "http://www.w3.org/Graphics/SVG/1.1/DTD/svg11.dtd">
<svg version="1.1" id="Capa_1" xmlns="http://www.w3.org/2000/svg" xmlns:xlink="http://www.w3.org/1999/xlink" x="0px" y="0px"
	 width="397.617px" height="397.617px" viewBox="0 0 397.617 397.617" style="enable-background:new 0 0 397.617 397.617;"
	 xml:space="preserve">
<g>
	<path d="M88.973,64.339c2.635,19.198,19.1,34.048,39.011,34.048c21.732,0,39.412-17.685,39.412-39.424
		c0-21.732-17.68-39.417-39.412-39.417c-19.912,0-36.376,14.848-39.011,34.043h-4.234c-2.968,0-5.375,2.409-5.375,5.375
		c0,2.969,2.407,5.375,5.375,5.375H88.973z"/>
	<path d="M264.023,227.823l55.618,55.622c1.05,1.046,2.426,1.575,3.802,1.575c1.374,0,2.756-0.529,3.8-1.575l68.8-68.799
		c1.013-1.007,1.574-2.373,1.574-3.801c0-1.422-0.562-2.792-1.574-3.8l-32.679-32.676c0-0.005,0-0.01-0.011-0.016
		c-0.005-0.005-0.011-0.005-0.016-0.01l-22.918-22.922c-2.016-2.015-5.586-2.015-7.602,0l-28.729,28.725
		c0.23-1.257,0.388-2.535,0.388-3.853c0-6.817-3.107-13.131-8.384-17.223l-50.151-41.649c-3.262-3.407-7.534-5.677-12.148-6.459
		c-0.172-0.066-0.346-0.122-0.53-0.163l-54.863-14.045c-4.284-1.968-8.858-3.133-13.607-3.467c-0.413-0.076-0.822-0.091-1.241-0.076
		c-0.509-0.031-1.021-0.061-1.541-0.061c-13.806,0-26.711,7.35-33.817,19.208l-24.506,32.289l-43.434-10.85
		c-0.812-0.266-3.759-0.953-3.759-0.953c-0.591-0.134-1.192-0.173-1.766-0.097c-5.447-0.339-10.499,1.496-14.541,4.617v-19.518
		c4.703-4.478,7.352-10.601,7.352-17.173c0-8.811-4.837-16.848-12.62-20.988c-1.672-0.887-3.677-0.831-5.292,0.143
		c-1.616,0.971-2.606,2.719-2.606,4.606v10.299h-6.499V84.435c0-1.887-0.99-3.635-2.607-4.606c-1.619-0.98-3.629-1.024-5.289-0.143
		C4.838,83.826,0,91.868,0,100.674c0,6.577,2.651,12.695,7.36,17.173v66.172C2.657,188.497,0,194.612,0,201.187
		c0,8.809,4.838,16.851,12.623,20.987c1.659,0.881,3.674,0.829,5.293-0.137c1.618-0.972,2.607-2.72,2.607-4.609v-11.632h6.499
		v11.632c0,1.89,0.99,3.638,2.606,4.609c0.851,0.514,1.809,0.766,2.77,0.766c0.865,0,1.737-0.21,2.527-0.623
		c7.783-4.143,12.62-12.185,12.62-20.988c0-6.573-2.649-12.695-7.352-17.168v-11.993c3.536,2.704,7.869,4.407,12.623,4.548
		l52.822,11.835c0.64,0.144,1.365,0.113,2.087-0.042c8.939,1.128,17.777-3.426,22.015-11.248l5.016-8.971l23.255,53.515
		l-32.397,27.67c-1.188,0.866-2.323,1.812-3.354,2.851c-0.065,0.062-0.124,0.138-0.189,0.2c-5,5.154-7.745,11.931-7.745,19.103
		c0,4.057,10.449,44.54,17.517,71.434l-24.071,8.986c-1.305,0.489-2.37,1.464-2.971,2.721c-3.021,2.346-4.887,5.999-4.887,9.926
		c0,8.229,11.982,12.125,14.945,12.125c0.113,0,0.231,0,0.349-0.011l41.373,1.114c1.179,0.169,2.37,0.283,3.601,0.283
		c1.205,0,2.389-0.104,3.549-0.272h1.79c0.016,0,0.031,0,0.047,0c1.242-0.133,2.722-0.525,3.693-1.408
		c9.854-3.736,16.536-13.229,16.536-23.936c0-0.494-0.016-0.977-0.047-1.46c0.1-0.415,0.154-0.851,0.154-1.298
		c0-0.95-0.247-1.842-0.683-2.618c-0.404-1.88-1.026-3.722-1.866-5.502l-18.615-55.04c0.328-0.498,0.641-1.013,0.935-1.548
		l33.411-30.264l5.089,25.571c0.061,0.283,0.139,0.566,0.238,0.844c2.777,7.37,8.582,13.208,15.695,15.906l67.183,29.538v31.396
		c0,1.371,0.514,2.625,1.354,3.575c1.722,4.939,6.373,8.378,11.843,8.378c5.806,0,11.044-6.089,13.019-8.704
		c0.319-0.419,0.578-0.881,0.755-1.364l14.559-39.091c1.28-2.274,2.194-4.721,2.719-7.292l0.203-0.535
		c0.316-0.831,0.379-1.712,0.243-2.573c0.062-0.683,0.094-1.376,0.094-2.067c0-12.055-8.43-22.469-20.157-25.009l-57.817-25.839
		l-18.883-59.35c-0.067-0.22-0.152-0.43-0.246-0.64l-21.596-46.408l7.438,1.554l47.188,40.082c4.021,3.564,9.187,5.527,14.541,5.527
		c1.322,0,2.604-0.168,3.864-0.394l-22.386,22.39C261.925,222.321,261.925,225.722,264.023,227.823z"/>
</g>
<g>
</g>
<g>
</g>
<g>
</g>
<g>
</g>
<g>
</g>
<g>
</g>
<g>
</g>
<g>
</g>
<g>
</g>
<g>
</g>
<g>
</g>
<g>
</g>
<g>
</g>
<g>
</g>
<g>
</g>
</svg>
